<svg id="Layer_1" data-name="Layer 1" xmlns="http://www.w3.org/2000/svg" viewBox="0 0 1000 1000"><defs><style>.cls-1{fill:#fbbfa4;}.cls-2{fill:#fccfbd;}.cls-3{fill:#f9ae86;}.cls-4{fill:#f18a81;}.cls-5,.cls-6{fill:#cc9366;}.cls-5{stroke:#cc9366;stroke-miterlimit:10;stroke-width:6px;}.cls-7{fill:#39b54a;}.cls-8{fill:#85c87d;}.cls-9{fill:#006838;}</style></defs><title>cellery logo</title><g id="happy_cell_face" data-name="happy cell face"><g id="round_face" data-name="round face"><circle id="face" class="cls-1" cx="582.92" cy="497.5" r="351.27"/><path class="cls-2" d="M333.07,250.58c131.56-108.28,326-107.45,457,9.61,144.66,129.27,157.12,351.33,27.85,496Q812,762.79,805.84,769a354.09,354.09,0,0,0,39-37.45c129.27-144.65,116.8-366.71-27.85-496C676.74,110.25,463.73,118.16,333.07,250.58Z"/><path class="cls-3" d="M375.77,734.81c-144.65-129.27-157.12-351.33-27.85-496Q353.83,232.21,360,226a354.17,354.17,0,0,0-39,37.45c-129.27,144.65-116.8,366.71,27.85,496,140.25,125.34,353.25,117.43,483.91-15C701.2,852.7,506.75,851.87,375.77,734.81Z"/></g><ellipse id="r" class="cls-4" cx="855.49" cy="585.85" rx="39.92" ry="28.74"/><path id="right_eye" data-name="right eye" class="cls-5" d="M830.27,532.85c-32.23,0-55.66-14.67-64.79-21.48a3.19,3.19,0,1,1,3.82-5.12c9.47,7.07,35.33,23.14,70.61,19.75a98.78,98.78,0,0,0,50.52-19.73,3.19,3.19,0,0,1,3.87,5.08,105.2,105.2,0,0,1-53.78,21C837,532.69,833.59,532.85,830.27,532.85Z"/><ellipse id="l" class="cls-4" cx="517.91" cy="585.85" rx="39.92" ry="28.74"/><path id="left_eye" data-name="left eye" class="cls-5" d="M547.44,532.85c-32.24,0-55.66-14.67-64.79-21.48a3.19,3.19,0,1,1,3.82-5.12c9.47,7.07,35.32,23.14,70.61,19.75a98.78,98.78,0,0,0,50.52-19.73,3.19,3.19,0,0,1,3.87,5.08,105.2,105.2,0,0,1-53.78,21C554.19,532.69,550.76,532.85,547.44,532.85Z"/><path class="cls-6" d="M695,675.79c-32.71,0-56.47-14.89-65.74-21.8a4.79,4.79,0,0,1,5.73-7.68c7.28,5.43,33.79,22.86,69.51,19.44a97.13,97.13,0,0,0,49.7-19.41A4.79,4.79,0,0,1,760,654a106.77,106.77,0,0,1-54.59,21.33C701.83,675.63,698.36,675.79,695,675.79Z"/></g><g id="CELERY"><rect id="right_s" data-name="right s" class="cls-7" x="451.32" y="911.52" width="213.06" height="82.86" rx="41.43" ry="41.43" transform="translate(-40.21 24.71) rotate(-2.45)"/><rect id="left_s" data-name="left s" class="cls-7" x="454.47" y="5.72" width="213.06" height="82.86" rx="41.43" ry="41.43" transform="translate(-1.5 24.01) rotate(-2.45)"/><path id="shadow" class="cls-7" d="M570.14,934.79a80,80,0,0,0-60.59-95.27c-173.92-38.71-294.29-196.1-280-365.91C242.14,325,357.74,198.81,510.72,166.72A79.83,79.83,0,1,0,477.94,10.46,521.3,521.3,0,0,0,414.8,28.32a42.48,42.48,0,0,1,6.7-.66l103.33.7c7.83.05,4.27,4.43-7.89,9.73l-13.05,5.68a141.17,141.17,0,0,1-19.8,6.78c-10.38,2.72-15.58,2.76-16.54,2.76L415,53c-16.93-.11-33.19-2.33-50.12-2.45a6.67,6.67,0,0,1-3-1,522.89,522.89,0,0,0-132.34,89.67,24,24,0,0,1,6.07-1l105.42.71c8,0,8.27,6.38.65,14.06l-8.18,8.24a53.31,53.31,0,0,1-14.06,9.83c-8.11,4-13.34,4-14.32,4l-53.6-.36-51.82-.35a10.45,10.45,0,0,1-3.79-1,507.21,507.21,0,0,0-77.44,115.34,17.69,17.69,0,0,1,5.71-1.17l110.89.75c8.4,0,11.67,8,7.29,17.64l-4.71,10.36a33.12,33.12,0,0,1-10.12,12.36c-6.65,5-12.1,5.09-13.13,5.08L158,333.41l-54.51-.36a9.1,9.1,0,0,1-3.78-1A479.63,479.63,0,0,0,70.69,458.54,9.46,9.46,0,0,1,75,457l53.65-.36,55.5-.37c1,0,6.32.16,10.6,7.45a36.1,36.1,0,0,1,4.37,18l0,15.11c0,14.07-6.81,25.64-15.08,25.69l-109.15.73a9.62,9.62,0,0,1-5.19-1.76,486.59,486.59,0,0,0,21.52,123.8,9.57,9.57,0,0,1,3.7-1l56-.37,57.93-.39c1,0,6.64.09,13.11,5.08a30,30,0,0,1,9.51,12.36l4.1,10.35c3.82,9.65-.11,17.59-8.73,17.65l-113.92.76a17.43,17.43,0,0,1-6-1.21,509.12,509.12,0,0,0,66.89,115.3,10.15,10.15,0,0,1,3.55-.75l58.91-.39,60.95-.41c1.11,0,7,.06,15.28,4A43.85,43.85,0,0,1,326,816.21l7.29,8.24c6.79,7.67,4.92,14-4.16,14.06l-119.86.81a28.14,28.14,0,0,1-6.53-.93,522.21,522.21,0,0,0,103.8,87.1A12.29,12.29,0,0,1,310,925l60.66-.4,62.75-.43c1.15,0,7.28,0,17.1,2.75a82.34,82.34,0,0,1,17.27,6.76L478,939.32c9.56,5.29,9.74,9.66.4,9.73L355,949.88a48.78,48.78,0,0,1-7.45-.67,526.33,526.33,0,0,0,127.3,46.17A79.83,79.83,0,0,0,570.14,934.79Z"/><path id="top_c" data-name="top c" class="cls-8" d="M620.83,990.9A80.05,80.05,0,0,1,603.42,989,523.51,523.51,0,0,1,298.81,793C224.36,694,188.93,573.53,199,453.78a482.89,482.89,0,0,1,40.35-156.27,504.13,504.13,0,0,1,87.09-133.29,518.68,518.68,0,0,1,125.11-101A524.18,524.18,0,0,1,606.49,4.06a79.84,79.84,0,1,1,32.78,156.27c-153,32.09-268.58,158.28-281.13,306.88-6.81,80.61,17.44,162.23,68.28,229.83A363.67,363.67,0,0,0,638.1,833.12,79.84,79.84,0,0,1,620.83,990.9Z"/><path class="cls-9" d="M70.61,458.57l.07.05s0-.05,0-.08S70.63,458.55,70.61,458.57Z"/><path class="cls-9" d="M69.18,521.37c.16.1.35.07.51.17l0-.55C69.49,521.08,69.36,521.28,69.18,521.37Z"/><path class="cls-9" d="M184,522.57c8.27-.05,15.05-11.62,15.08-25.69l0-15.11a36.1,36.1,0,0,0-4.37-18c-4.28-7.29-9.59-7.45-10.6-7.45l-55.5.37L75,457a9.46,9.46,0,0,0-4.33,1.53s0,0,0,.08A14.07,14.07,0,0,1,76,463.91a36.07,36.07,0,0,1,4.37,18l0,15.11c0,11.39-4.6,20.62-10.68,23.93l0,.55a9.62,9.62,0,0,0,5.19,1.76Z"/><path class="cls-9" d="M90.72,645.47c.19.06.44.25.63.32,0-.15-.1-.3-.14-.45C91.06,645.4,90.87,645.41,90.72,645.47Z"/><path class="cls-9" d="M106.41,688.52c.17.06.33,0,.49.1l-.13-.33C106.63,688.35,106.55,688.47,106.41,688.52Z"/><path class="cls-9" d="M226.82,689.07c8.62-.06,12.55-8,8.73-17.65l-4.1-10.35a30,30,0,0,0-9.51-12.36c-6.47-5-12.06-5.09-13.11-5.08L150.9,644l-56,.37a9.57,9.57,0,0,0-3.7,1c0,.15.09.3.14.45a21.17,21.17,0,0,1,6.47,3.32,30,30,0,0,1,9.51,12.36l4.1,10.36c3.1,7.83.83,14.2-4.66,16.46l.13.33a17.43,17.43,0,0,0,6,1.21Z"/><path class="cls-9" d="M173.23,804c.25.06.62.23.87.29-.1-.13-.2-.28-.31-.41C173.62,804,173.39,804,173.23,804Z"/><path class="cls-9" d="M202.09,838.29c.25.06.45,0,.69.1l-.29-.34C202.33,838.11,202.26,838.23,202.09,838.29Z"/><path class="cls-9" d="M329.17,838.51c9.08-.06,10.95-6.39,4.16-14.06L326,816.21a43.85,43.85,0,0,0-13.56-9.82c-8.25-4-14.17-4-15.28-4l-60.95.41-58.91.39a10.15,10.15,0,0,0-3.55.75c.11.13.21.28.31.41a35.42,35.42,0,0,1,7.65,2.6,43.85,43.85,0,0,1,13.57,9.82L202.6,825c5.48,6.19,4.93,11.22-.11,13.06l.29.34a28.14,28.14,0,0,0,6.53.93Z"/><path class="cls-9" d="M347.23,949.18l.34,0-.19-.1C347.31,949.12,347.31,949.16,347.23,949.18Z"/><path class="cls-9" d="M306.06,925.57c.25,0,.65.15.91.19l-.39-.27C306.44,925.53,306.2,925.53,306.06,925.57Z"/><path class="cls-9" d="M478.44,949.05c9.34-.07,9.16-4.44-.4-9.73l-10.25-5.68a82.34,82.34,0,0,0-17.27-6.76c-9.82-2.72-15.95-2.75-17.1-2.75l-62.75.43L310,925a12.29,12.29,0,0,0-3.43.53l.39.27a66.4,66.4,0,0,1,8.85,1.79,82.79,82.79,0,0,1,17.26,6.76L343.34,940c7.84,4.34,8.92,7.89,4,9.12l.19.1a48.78,48.78,0,0,0,7.45.67Z"/><path class="cls-9" d="M99.53,332c.06,0,.16,0,.22.06l.09-.22C99.75,331.84,99.62,331.94,99.53,332Z"/><path class="cls-9" d="M117.79,288.92c.19.07.29.24.47.32.08-.16.16-.31.23-.47C118.25,288.86,118,288.82,117.79,288.92Z"/><path class="cls-9" d="M158,333.41l56.38.38c1,0,6.48-.09,13.13-5.08a33.12,33.12,0,0,0,10.12-12.36L242.38,306c4.38-9.65,1.11-17.59-7.29-17.64L124.2,287.6a17.69,17.69,0,0,0-5.71,1.17c-.07.16-.15.31-.23.47,5.06,2.33,6.78,8.61,3.26,16.37L116.81,316a33.15,33.15,0,0,1-10.12,12.37,23.13,23.13,0,0,1-6.85,3.48l-.09.22a9.1,9.1,0,0,0,3.78,1Z"/><path class="cls-9" d="M195.52,173.32c.09,0,.3.07.41.11s.16-.21.25-.31C196,173.17,195.69,173.28,195.52,173.32Z"/><path class="cls-9" d="M229.05,139.29c.1,0,.12.13.22.17a3.47,3.47,0,0,1,.29-.25C229.38,139.26,229.23,139.24,229.05,139.29Z"/><path class="cls-9" d="M251.54,174.77l53.6.36c1,0,6.21-.07,14.32-4a53.31,53.31,0,0,0,14.06-9.83L341.7,153c7.62-7.68,7.33-14-.65-14.06l-105.42-.71a24,24,0,0,0-6.07,1,3.47,3.47,0,0,0-.29.25c4.16,1.8,3.58,6.88-2.62,13.12l-8.18,8.25a53.54,53.54,0,0,1-14.06,9.83,34.83,34.83,0,0,1-8.23,2.46c-.09.1-.17.21-.25.31a10.45,10.45,0,0,0,3.79,1Z"/><path class="cls-9" d="M361.77,49.48l.13.06c.09,0,.19-.07.28-.12Z"/><path class="cls-9" d="M414.4,28.36s0,.06.07.08l.33-.12C414.65,28.35,414.55,28.34,414.4,28.36Z"/><path class="cls-9" d="M415,53l52.54.36c1,0,6.16,0,16.54-2.76a141.17,141.17,0,0,0,19.8-6.78l13.05-5.68c12.16-5.3,15.72-9.68,7.89-9.73l-103.33-.7a42.48,42.48,0,0,0-6.7.66l-.33.12c3.14,1.22-.52,4.77-10.5,9.12l-13.06,5.69c-7.61,3.47-18,4.74-20.07,5-3.33.39-6.16.75-8.66,1.12-.09,0-.19.08-.28.12a6.67,6.67,0,0,0,3,1C381.88,51.13,398.08,52.84,415,53Z"/></g></svg>